<?xml version="1.0" encoding="UTF-8" standalone="no"?>
<!DOCTYPE svg PUBLIC "-//W3C//DTD SVG 1.1//EN" "http://www.w3.org/Graphics/SVG/1.1/DTD/svg11.dtd">
<!-- Created with Vectornator (http://vectornator.io/) -->
<svg height="1024.0px" stroke-miterlimit="10" style="fill-rule:nonzero;clip-rule:evenodd;stroke-linecap:round;stroke-linejoin:round;" version="1.1" viewBox="0 0 1024 1024" width="1024.0px" xml:space="preserve" xmlns="http://www.w3.org/2000/svg" xmlns:vectornator="http://vectornator.io" xmlns:xlink="http://www.w3.org/1999/xlink">
<defs/>
<g id="Layer-2" vectornator:layerName="Layer 2">
<path d="M136.826 356.168L157.068 356.168L157.068 667.832L136.826 667.832L136.826 356.168Z" fill="#ffffff" fill-rule="nonzero" opacity="1" stroke="#ffffff" stroke-linecap="butt" stroke-linejoin="round" stroke-width="13.6793" vectornator:layerName="Rectangle 1"/>
<path d="M887.105 650.968L887.174 666.477L584.846 667.832L584.776 652.323L887.105 650.968Z" fill="#ffffff" fill-rule="nonzero" opacity="1" stroke="#ffffff" stroke-linecap="butt" stroke-linejoin="round" stroke-width="13.6793" vectornator:layerName="Rectangle 5"/>
<path d="M887.105 356.168L887.174 371.677L584.846 373.032L584.776 357.523L887.105 356.168Z" fill="#ffffff" fill-rule="nonzero" opacity="1" stroke="#ffffff" stroke-linecap="butt" stroke-linejoin="round" stroke-width="13.6793" vectornator:layerName="Rectangle 10"/>
<path d="M769.907 595.074L769.977 610.583L584.846 611.413L584.776 595.904L769.907 595.074Z" fill="#ffffff" fill-rule="nonzero" opacity="1" stroke="#ffffff" stroke-linecap="butt" stroke-linejoin="round" stroke-width="13.6793" vectornator:layerName="Rectangle 6"/>
<path d="M887.105 409.933L887.174 425.442L702.043 426.271L701.973 410.762L887.105 409.933Z" fill="#ffffff" fill-rule="nonzero" opacity="1" stroke="#ffffff" stroke-linecap="butt" stroke-linejoin="round" stroke-width="13.6793" vectornator:layerName="Rectangle 9"/>
<path d="M887.105 463.138L887.174 478.647L753.851 479.245L753.782 463.736L887.105 463.138Z" fill="#ffffff" fill-rule="nonzero" opacity="1" stroke="#ffffff" stroke-linecap="butt" stroke-linejoin="round" stroke-width="13.6793" vectornator:layerName="Rectangle 7"/>
<path d="M718.099 543.359L718.169 558.868L584.846 559.465L584.776 543.956L718.099 543.359Z" fill="#ffffff" fill-rule="nonzero" opacity="1" stroke="#ffffff" stroke-linecap="butt" stroke-linejoin="round" stroke-width="13.6793" vectornator:layerName="Rectangle 8"/>
<path d="M486.287 498.213L486.357 513.722L294.09 514.583L294.02 499.074L486.287 498.213Z" fill="#ffffff" fill-rule="nonzero" opacity="1" stroke="#ffffff" stroke-linecap="butt" stroke-linejoin="round" stroke-width="13.6793" vectornator:layerName="Rectangle 11"/>
<path d="M486.287 356.168L486.357 371.677L294.09 372.539L294.02 357.03L486.287 356.168Z" fill="#ffffff" fill-rule="nonzero" opacity="1" stroke="#ffffff" stroke-linecap="butt" stroke-linejoin="round" stroke-width="13.6793" vectornator:layerName="Rectangle 13"/>
<path d="M486.236 646.053L486.305 661.562L294.039 662.424L293.969 646.915L486.236 646.053Z" fill="#ffffff" fill-rule="nonzero" opacity="1" stroke="#ffffff" stroke-linecap="butt" stroke-linejoin="round" stroke-width="13.6793" vectornator:layerName="Rectangle 12"/>
</g>
<g id="Layer-1" vectornator:layerName="Layer 1"/>
</svg>
